<svg xmlns="http://www.w3.org/2000/svg"  viewBox="0 0 100 100" width="500px" height="500px"><path d="M92,71.166c-0.381,0-0.764-0.027-1.139-0.081c-0.5-0.072-1.072-0.144-1.65-0.215l-0.165-0.021 c-0.73-0.091-1.458-0.183-2.094-0.273c-0.768-0.109-1.504-0.327-2.189-0.639c-0.585,0.137-1.188,0.207-1.797,0.207 c-0.38,0-0.763-0.027-1.137-0.081l-3.576-0.512c-0.577-0.081-1.142-0.227-1.684-0.43c-0.028,0-0.055,0-0.083,0 c-0.365,0-0.738-0.026-1.109-0.077c-0.414-0.06-0.801-0.086-1.209-0.117c-0.659-0.051-1.379-0.106-2.226-0.229 c-0.243-0.034-0.483-0.079-0.721-0.136c-0.288,0.031-0.579,0.047-0.872,0.047c-0.301,0-0.603-0.017-0.903-0.052 c-2.834-0.314-5.84-0.481-8.746-0.643c-1.518-0.085-2.918-0.589-4.09-1.397c-1.175,0.68-2.538,1.068-3.99,1.068h-3.41 c-0.792,0-1.565-0.116-2.302-0.337c-0.536,0.2-1.098,0.344-1.679,0.427c-1.758,0.252-3.174,0.252-4.543,0.252 c-0.812,0-1.605-0.123-2.356-0.354c-0.757,0.338-1.575,0.561-2.43,0.651l-9.719,1.022c-0.29,0.029-0.564,0.044-0.838,0.044 c-0.31,0-0.618-0.019-0.924-0.054c-0.483,0.157-0.983,0.269-1.494,0.333c-1.297,0.162-2.639,0.329-3.78,0.492 c-0.371,0.054-0.753,0.081-1.134,0.081c-0.45,0-0.896-0.038-1.335-0.112c-0.748,0.308-1.555,0.514-2.407,0.607 c-0.395,0.044-1.328,0.147-2.955,0.419c-0.408,0.07-0.86,0.108-1.314,0.108c-1.894,0-3.731-0.674-5.174-1.898 C3.032,67.749,2,65.524,2,63.166V41.004c0-4.411,3.589-8,8-8h3.41c0.795,0,1.572,0.116,2.312,0.339 c0.884-0.331,1.832-0.509,2.803-0.509h3.41c0.579,0,1.149,0.062,1.705,0.182c0.555-0.12,1.126-0.182,1.705-0.182h9.717 c0.373,0,0.743,0.025,1.108,0.076c0.365-0.051,0.735-0.076,1.108-0.076h10.229c0.285,0,0.57,0.016,0.853,0.045 c0.283-0.029,0.567-0.045,0.852-0.045h9.547c0.402,0,0.801,0.029,1.193,0.088c0.393-0.059,0.791-0.088,1.193-0.088h3.41 c1.565,0,3.027,0.452,4.262,1.232c1.234-0.78,2.696-1.232,4.262-1.232h3.409c0.696,0,1.379,0.088,2.038,0.261 c0.396-0.061,0.798-0.091,1.202-0.091h3.75c0.79,0,1.564,0.115,2.302,0.337c0.738-0.222,1.512-0.337,2.301-0.337h3.755 c4.41,0,7.998,3.589,7.998,8c0,1.162-0.245,2.284-0.729,3.336c-0.526,1.231-1.033,2.442-1.534,3.64 c-0.527,1.261-1.028,2.457-1.533,3.636c1.028,2.697,2.154,5.61,3.347,8.475c1.104,2.647,0.699,5.704-1.059,7.975 C96.823,70.006,94.458,71.166,92,71.166z" opacity=".35"/><path fill="#f2f2f2" d="M90,69.166c-0.381,0-0.764-0.027-1.139-0.081c-0.5-0.072-1.072-0.144-1.65-0.215l-0.165-0.021 c-0.73-0.091-1.458-0.183-2.094-0.273c-0.768-0.109-1.504-0.327-2.189-0.639c-0.585,0.137-1.188,0.207-1.797,0.207 c-0.38,0-0.763-0.027-1.137-0.081l-3.576-0.512c-0.577-0.081-1.142-0.227-1.684-0.43c-0.028,0-0.055,0-0.083,0 c-0.365,0-0.738-0.026-1.109-0.077c-0.414-0.06-0.801-0.086-1.209-0.117c-0.659-0.051-1.379-0.106-2.226-0.229 c-0.243-0.034-0.483-0.079-0.721-0.136c-0.288,0.031-0.579,0.047-0.872,0.047c-0.301,0-0.603-0.017-0.903-0.052 c-2.834-0.314-5.84-0.481-8.746-0.643c-1.518-0.085-2.918-0.589-4.09-1.397c-1.175,0.68-2.538,1.068-3.99,1.068h-3.41 c-0.792,0-1.565-0.116-2.302-0.337c-0.536,0.2-1.098,0.344-1.679,0.427c-1.758,0.252-3.174,0.252-4.543,0.252 c-0.812,0-1.605-0.123-2.356-0.354c-0.757,0.338-1.575,0.561-2.43,0.651l-9.719,1.022c-0.29,0.029-0.564,0.044-0.838,0.044 c-0.31,0-0.618-0.019-0.924-0.054c-0.483,0.157-0.983,0.269-1.494,0.333c-1.297,0.162-2.639,0.329-3.78,0.492 c-0.371,0.054-0.753,0.081-1.134,0.081c-0.45,0-0.896-0.038-1.335-0.112c-0.748,0.308-1.555,0.514-2.407,0.607 c-0.395,0.044-1.328,0.147-2.955,0.419c-0.408,0.07-0.86,0.108-1.314,0.108c-1.894,0-3.731-0.674-5.174-1.898 C1.032,65.749,0,63.524,0,61.166V39.004c0-4.411,3.589-8,8-8h3.41c0.795,0,1.572,0.116,2.312,0.339 c0.884-0.331,1.832-0.509,2.803-0.509h3.41c0.579,0,1.149,0.062,1.705,0.182c0.555-0.12,1.126-0.182,1.705-0.182h9.717 c0.373,0,0.743,0.025,1.108,0.076c0.365-0.051,0.735-0.076,1.108-0.076h10.229c0.285,0,0.57,0.016,0.853,0.045 c0.283-0.029,0.567-0.045,0.852-0.045h9.547c0.402,0,0.801,0.029,1.193,0.088c0.393-0.059,0.791-0.088,1.193-0.088h3.41 c1.565,0,3.027,0.452,4.262,1.232c1.234-0.78,2.696-1.232,4.262-1.232h3.409c0.696,0,1.379,0.088,2.038,0.261 c0.396-0.061,0.798-0.091,1.202-0.091h3.75c0.79,0,1.564,0.115,2.302,0.337c0.738-0.222,1.512-0.337,2.301-0.337h3.755 c4.41,0,7.998,3.589,7.998,8c0,1.162-0.245,2.284-0.729,3.336c-0.526,1.231-1.033,2.442-1.534,3.64 c-0.527,1.261-1.028,2.457-1.533,3.636c1.028,2.697,2.154,5.61,3.347,8.475c1.104,2.647,0.699,5.704-1.059,7.975 C94.823,68.006,92.458,69.166,90,69.166z"/><path fill="#f4665c" d="M91,62.666c-0.07,0-0.141-0.005-0.211-0.015c-0.589-0.084-1.262-0.168-1.935-0.252 c-0.691-0.087-1.382-0.173-1.986-0.259c-0.551-0.079-1.014-0.456-1.201-0.98c-0.398-1.115-0.791-2.063-1.205-3.057 c-0.375,0.827-0.734,1.634-1.097,2.578c-0.225,0.586-0.786,0.962-1.399,0.962c-0.071,0-0.142-0.005-0.213-0.016l-3.58-0.511 c-0.467-0.067-0.875-0.35-1.102-0.763c-0.118-0.215-0.181-0.453-0.185-0.692c-0.087,0.226-0.229,0.429-0.416,0.591 c-0.274,0.238-0.624,0.367-0.983,0.367c-0.07,0-0.141-0.005-0.211-0.015c-0.561-0.08-1.082-0.119-1.603-0.159 c-0.587-0.045-1.175-0.092-1.808-0.183c-0.554-0.079-1-0.454-1.19-0.952c-0.082,0.155-0.191,0.296-0.325,0.415 c-0.276,0.248-0.633,0.383-1,0.383c-0.055,0-0.11-0.003-0.166-0.009c-3.027-0.337-6.125-0.509-9.122-0.676 c-0.795-0.045-1.418-0.702-1.418-1.498V43.453c-0.249,0.183-0.555,0.29-0.887,0.29H53.12v2.114h3.103c0.829,0,1.5,0.672,1.5,1.5 v3.41c0,0.828-0.671,1.5-1.5,1.5H53.12v5.318c0,0.828-0.671,1.5-1.5,1.5h-3.41c-0.829,0-1.5-0.672-1.5-1.5V43.729 c-0.067,0.009-0.135,0.014-0.205,0.014h-1.91v14.014c0,0.747-0.549,1.38-1.289,1.485c-1.298,0.185-2.375,0.185-3.621,0.185 c-0.829,0-1.5-0.672-1.5-1.5V43.743h-1.91c-0.439,0-0.834-0.188-1.108-0.489c-0.209,0.229-0.491,0.396-0.813,0.46 c-0.683,0.137-2.414,0.157-3.385,0.157c-0.312,0-1.006-0.003-1.718-0.024v2.011h3.615c0.829,0,1.5,0.672,1.5,1.5v3.41 c0,0.828-0.671,1.5-1.5,1.5h-3.615v1.479c1.088-0.147,2.13-0.213,3.151-0.276c0.512-0.032,1.022-0.063,1.532-0.106 c0.042-0.003,0.083-0.005,0.125-0.005c0.375,0,0.738,0.141,1.016,0.396c0.309,0.283,0.484,0.684,0.484,1.104v3.41 c0,0.768-0.58,1.411-1.343,1.492L24.5,60.783c-0.052,0.005-0.104,0.008-0.157,0.008c-0.369,0-0.727-0.136-1.003-0.385 c-0.316-0.285-0.497-0.69-0.497-1.115V38.834c0-0.828,0.671-1.5,1.5-1.5h9.717c0.439,0,0.834,0.188,1.108,0.489 c0.274-0.301,0.669-0.489,1.108-0.489h10.229c0.316,0,0.61,0.098,0.852,0.266c0.242-0.168,0.536-0.266,0.853-0.266h9.547 c0.487,0,0.919,0.231,1.193,0.591c0.274-0.359,0.707-0.591,1.193-0.591h3.41c0.829,0,1.5,0.672,1.5,1.5v14.727 c1.511,0.058,3.052,0.19,4.432,0.315c0.455,0.042,0.846,0.283,1.092,0.633V38.834c0-0.828,0.671-1.5,1.5-1.5h3.409 c0.829,0,1.5,0.672,1.5,1.5v20.255c0.009-0.024,0.02-0.049,0.031-0.072c0.763-1.695,1.483-3.391,2.203-5.086 c0.644-1.514,1.287-3.028,1.96-4.543c-0.854-2.031-1.609-4.015-2.342-5.938c-0.496-1.302-0.988-2.595-1.505-3.889 c-0.185-0.462-0.128-0.985,0.15-1.397c0.279-0.412,0.745-0.659,1.242-0.659h3.75c0.605,0,1.152,0.364,1.385,0.923 c0.344,0.827,0.635,1.574,0.912,2.309c0.291-0.704,0.587-1.44,0.906-2.27c0.223-0.58,0.779-0.962,1.4-0.962h3.75 c0.504,0,0.975,0.253,1.252,0.674c0.277,0.421,0.325,0.953,0.126,1.417c-0.562,1.31-1.1,2.597-1.632,3.869 c-0.859,2.055-1.676,4.006-2.557,5.986l0.286,0.75c1.215,3.196,2.592,6.818,4.08,10.389c0.207,0.498,0.131,1.068-0.199,1.495 C91.9,62.454,91.46,62.666,91,62.666z M9,62.666c-0.353,0-0.697-0.124-0.97-0.355c-0.336-0.285-0.53-0.704-0.53-1.145V39.004 c0-0.828,0.671-1.5,1.5-1.5h3.41c0.608,0,1.156,0.367,1.387,0.93l2.227,5.419v-5.019c0-0.828,0.671-1.5,1.5-1.5h3.41 c0.829,0,1.5,0.672,1.5,1.5v20.798c0,0.756-0.563,1.395-1.313,1.488l-0.168,0.021c-1.298,0.162-2.59,0.324-3.726,0.486 c-0.072,0.011-0.143,0.016-0.214,0.016c-0.605,0-1.162-0.367-1.392-0.942c-0.502-1.254-1.106-2.773-1.71-4.294v3.506 c0.17,0.304,0.196,0.598,0.2,0.663c0.013,0.237,0,1.43-1.556,1.603c-0.451,0.05-1.506,0.167-3.307,0.467 C9.164,62.659,9.082,62.666,9,62.666z"/><path fill="#40396e" d="M75.486,38.834c0,6.819,0,13.468,0,20.287c-1.193-0.17-2.216-0.17-3.41-0.341 c0-6.649,0-13.127,0-19.946C73.27,38.834,74.293,38.834,75.486,38.834 M63.553,38.834c0,5.626,0,10.57,0,16.195 c1.875,0,3.921,0.17,5.796,0.341c0,1.023,0,2.216,0,3.239c-3.069-0.341-6.137-0.511-9.206-0.682c0-6.478,0-12.615,0-19.094 C61.337,38.834,62.36,38.834,63.553,38.834 M57.757,38.834c0,1.023,0,2.557,0,3.41c-0.852,0-5.796,0-6.137,0 c0,1.705,0,3.41,0,5.114c0.17,0,4.091,0,4.603,0c0,1.023,0,2.387,0,3.41c-0.511,0-4.432,0-4.603,0c0,2.728,0,4.091,0,6.819 c-0.852,0-1.705,0-2.387,0c-0.341,0-0.682,0-1.023,0c0-6.478,0-12.274,0-18.753C51.449,38.834,54.518,38.834,57.757,38.834 M46.505,38.834c0,1.023,0,2.387,0,3.41c-1.193,0-2.216,0-3.41,0c0,5.455,0,10.058,0,15.514c-1.193,0.17-2.216,0.17-3.41,0.17 c0-5.455,0-10.229,0-15.684c-0.17,0-3.239,0-3.41,0c0-1.023,0-2.387,0-3.41C39.857,38.834,42.925,38.834,46.505,38.834 M34.06,38.834c0,1.023,0,2.387,0,3.41c-0.426,0.085-1.747,0.128-3.09,0.128c-1.342,0-2.706-0.043-3.218-0.128 c0,1.875,0,3.239,0,5.114c1.534,0,3.58,0,5.114,0c0,1.023,0,2.387,0,3.41c-1.534,0-3.58,0-5.114,0c0,1.875,0,2.898,0,4.773 c2.216-0.511,4.262-0.511,6.308-0.682c0,1.023,0,2.387,0,3.41c-3.239,0.341-6.478,0.682-9.717,1.023c0-6.819,0-13.638,0-20.457 C27.582,38.834,30.821,38.834,34.06,38.834 M20.933,38.834c0,6.99,0,13.809,0,20.798c-1.364,0.17-2.728,0.341-3.921,0.511 c-1.705-4.262-4.603-11.592-4.603-11.592s0,7.331,0,12.104c0.682,0-0.341,0-3.41,0.511c0-7.331,0-14.832,0-22.162 c1.364,0,3.41,0,3.41,0l5.114,12.445c0,0,0-7.842,0-12.615C18.717,38.834,19.74,38.834,20.933,38.834 M90.83,39.004h0.005 M90.83,39.004c-1.534,3.58-2.898,6.99-4.432,10.399c1.364,3.58,2.898,7.672,4.603,11.763c-1.193-0.17-2.728-0.341-3.921-0.511 c-0.852-2.387-1.705-4.091-2.557-6.478c-0.852,2.216-1.705,3.751-2.557,5.967c-1.193-0.17-2.387-0.341-3.58-0.511 c1.534-3.41,2.898-6.819,4.432-10.229c-1.534-3.58-2.728-6.99-4.091-10.399c1.193,0,2.557,0,3.751,0 c0.852,2.046,1.364,3.58,2.216,5.796c0.852-2.046,1.534-3.58,2.387-5.796C88.272,39.004,89.636,39.004,90.83,39.004 M75.486,35.834 h-3.41c-1.657,0-3,1.343-3,3v13.5c-0.808-0.072-1.661-0.142-2.524-0.197V38.834c0-1.657-1.343-3-3-3h-3.41 c-0.424,0-0.828,0.088-1.193,0.247c-0.366-0.159-0.769-0.247-1.193-0.247H48.21c-0.296,0-0.582,0.043-0.852,0.123 c-0.27-0.08-0.556-0.123-0.852-0.123H36.277c-0.391,0-0.765,0.075-1.108,0.211c-0.343-0.136-0.717-0.211-1.108-0.211h-9.717 c-0.633,0-1.221,0.196-1.705,0.531c-0.484-0.335-1.072-0.531-1.705-0.531h-3.41c-1.118,0-2.094,0.612-2.61,1.519 c-0.548-0.831-1.484-1.349-2.505-1.349H9c-1.657,0-3,1.343-3,3v22.162c0,0.882,0.388,1.719,1.061,2.289 C7.607,63.918,8.295,64.166,9,64.166c0.164,0,0.329-0.013,0.493-0.041c1.761-0.293,2.787-0.407,3.226-0.456 c1.167-0.13,1.893-0.648,2.326-1.261c0.538,0.466,1.233,0.735,1.966,0.735c0.141,0,0.283-0.01,0.426-0.03 c1.167-0.167,2.541-0.338,3.869-0.504c0.602-0.075,1.145-0.326,1.578-0.697c0.445,0.248,0.947,0.379,1.46,0.379 c0.104,0,0.209-0.005,0.314-0.016l4.694-0.494l5.023-0.529c1.231-0.13,2.223-0.992,2.561-2.125c0.463,1.06,1.52,1.801,2.751,1.801 c1.249,0,2.429,0,3.834-0.201c0.948-0.135,1.739-0.704,2.185-1.489c0.537,0.813,1.458,1.349,2.505,1.349h1.023h2.387 c1.657,0,3-1.343,3-3v-3.819h1.603c0.321,0,0.631-0.051,0.921-0.144v4.304c0,1.592,1.244,2.907,2.834,2.995 c2.976,0.165,6.054,0.336,9.041,0.668c0.111,0.012,0.221,0.018,0.331,0.018c0.414,0,0.821-0.086,1.197-0.249 c0.331,0.197,0.705,0.332,1.107,0.389c0.694,0.099,1.307,0.146,1.899,0.192c0.52,0.04,1.01,0.078,1.51,0.149 c0.141,0.02,0.283,0.03,0.424,0.03c0.34,0,0.677-0.058,0.995-0.17c0.419,0.344,0.929,0.572,1.479,0.651l3.58,0.511 c0.143,0.02,0.285,0.03,0.426,0.03c0.951,0,1.841-0.453,2.402-1.204c0.428,0.904,1.284,1.542,2.287,1.685 c0.613,0.088,1.313,0.175,2.013,0.263c0.664,0.083,1.327,0.166,1.908,0.249c0.142,0.02,0.284,0.03,0.425,0.03 c0.92,0,1.799-0.424,2.372-1.163c0.661-0.853,0.812-1.995,0.397-2.991c-1.477-3.544-2.847-7.15-4.057-10.331l-0.072-0.189 c0.791-1.798,1.536-3.577,2.316-5.442c0.516-1.234,1.039-2.482,1.582-3.752c0.188-0.392,0.293-0.831,0.293-1.294 c0-1.657-1.341-3-2.997-3H90.83h-3.751c-0.905,0-1.742,0.406-2.301,1.075c-0.56-0.67-1.398-1.075-2.301-1.075h-3.751 c-0.529,0-1.04,0.14-1.487,0.394C76.746,36.043,76.141,35.834,75.486,35.834L75.486,35.834z M90.83,42.004h0.005H90.83 L90.83,42.004z"/></svg>